<mxfile host="app.diagrams.net" modified="2023-11-14T09:48:51.696Z" agent="Mozilla/5.0 (Windows NT 10.0; Win64; x64) AppleWebKit/537.36 (KHTML, like Gecko) Chrome/119.0.0.0 Safari/537.36 Edg/119.0.0.0" etag="xWHm06dWpsGtyNA_WdiF" version="22.1.0" type="github">
  <diagram id="C5RBs43oDa-KdzZeNtuy" name="Page-1">
    <mxGraphModel dx="1317" dy="1832" grid="1" gridSize="10" guides="1" tooltips="1" connect="1" arrows="1" fold="1" page="1" pageScale="1" pageWidth="827" pageHeight="1169" math="0" shadow="0">
      <root>
        <mxCell id="WIyWlLk6GJQsqaUBKTNV-0" />
        <mxCell id="WIyWlLk6GJQsqaUBKTNV-1" parent="WIyWlLk6GJQsqaUBKTNV-0" />
        <mxCell id="mPyTUqxMGJh4DycX4-v5-0" value="Barrios" style="rounded=0;whiteSpace=wrap;html=1;" parent="WIyWlLk6GJQsqaUBKTNV-1" vertex="1">
          <mxGeometry x="600" y="340" width="120" height="60" as="geometry" />
        </mxCell>
        <mxCell id="mPyTUqxMGJh4DycX4-v5-2" value="Calles" style="rounded=0;whiteSpace=wrap;html=1;" parent="WIyWlLk6GJQsqaUBKTNV-1" vertex="1">
          <mxGeometry x="600" y="130" width="120" height="60" as="geometry" />
        </mxCell>
        <mxCell id="mPyTUqxMGJh4DycX4-v5-3" value="Estaciones" style="rounded=0;whiteSpace=wrap;html=1;" parent="WIyWlLk6GJQsqaUBKTNV-1" vertex="1">
          <mxGeometry x="1048.5" y="660" width="120" height="60" as="geometry" />
        </mxCell>
        <mxCell id="mPyTUqxMGJh4DycX4-v5-4" value="Líneas de metro" style="rounded=0;whiteSpace=wrap;html=1;" parent="WIyWlLk6GJQsqaUBKTNV-1" vertex="1">
          <mxGeometry x="505.5" y="660" width="120" height="60" as="geometry" />
        </mxCell>
        <mxCell id="mPyTUqxMGJh4DycX4-v5-5" value="Puntos de Interés" style="rounded=0;whiteSpace=wrap;html=1;" parent="WIyWlLk6GJQsqaUBKTNV-1" vertex="1">
          <mxGeometry x="490.5" y="990" width="120" height="60" as="geometry" />
        </mxCell>
        <mxCell id="mPyTUqxMGJh4DycX4-v5-6" value="Líneas de autobuses&amp;nbsp;" style="rounded=0;whiteSpace=wrap;html=1;" parent="WIyWlLk6GJQsqaUBKTNV-1" vertex="1">
          <mxGeometry x="1140" y="240" width="120" height="60" as="geometry" />
        </mxCell>
        <mxCell id="mPyTUqxMGJh4DycX4-v5-23" value="&amp;nbsp;lineas_autobuses_tramos" style="strokeWidth=2;html=1;shape=mxgraph.flowchart.decision;whiteSpace=wrap;" parent="WIyWlLk6GJQsqaUBKTNV-1" vertex="1">
          <mxGeometry x="850" y="220" width="160" height="100" as="geometry" />
        </mxCell>
        <mxCell id="mPyTUqxMGJh4DycX4-v5-24" value="lineas_metro_estaciones" style="strokeWidth=2;html=1;shape=mxgraph.flowchart.decision;whiteSpace=wrap;" parent="WIyWlLk6GJQsqaUBKTNV-1" vertex="1">
          <mxGeometry x="758.5" y="640" width="160" height="100" as="geometry" />
        </mxCell>
        <mxCell id="mPyTUqxMGJh4DycX4-v5-28" value="nombre_calle" style="ellipse;whiteSpace=wrap;html=1;" parent="WIyWlLk6GJQsqaUBKTNV-1" vertex="1">
          <mxGeometry x="663.5" y="-30" width="80" height="60" as="geometry" />
        </mxCell>
        <mxCell id="mPyTUqxMGJh4DycX4-v5-29" value="id_calle" style="ellipse;whiteSpace=wrap;html=1;" parent="WIyWlLk6GJQsqaUBKTNV-1" vertex="1">
          <mxGeometry x="758.5" y="-20" width="80" height="60" as="geometry" />
        </mxCell>
        <mxCell id="mPyTUqxMGJh4DycX4-v5-32" value="id_calle_inicio" style="ellipse;whiteSpace=wrap;html=1;" parent="WIyWlLk6GJQsqaUBKTNV-1" vertex="1">
          <mxGeometry x="570" y="-30" width="80" height="60" as="geometry" />
        </mxCell>
        <mxCell id="mPyTUqxMGJh4DycX4-v5-33" value="id_punto_interes" style="ellipse;whiteSpace=wrap;html=1;" parent="WIyWlLk6GJQsqaUBKTNV-1" vertex="1">
          <mxGeometry x="287.5" y="910" width="93" height="60" as="geometry" />
        </mxCell>
        <mxCell id="mPyTUqxMGJh4DycX4-v5-35" value="id_linea_autobus" style="ellipse;whiteSpace=wrap;html=1;" parent="WIyWlLk6GJQsqaUBKTNV-1" vertex="1">
          <mxGeometry x="1310" y="190" width="100" height="60" as="geometry" />
        </mxCell>
        <mxCell id="mPyTUqxMGJh4DycX4-v5-37" value="nombre_punto_interes" style="ellipse;whiteSpace=wrap;html=1;" parent="WIyWlLk6GJQsqaUBKTNV-1" vertex="1">
          <mxGeometry x="263.5" y="1070" width="124" height="60" as="geometry" />
        </mxCell>
        <mxCell id="mPyTUqxMGJh4DycX4-v5-40" value="nombre_linea_metro" style="ellipse;whiteSpace=wrap;html=1;" parent="WIyWlLk6GJQsqaUBKTNV-1" vertex="1">
          <mxGeometry x="338.5" y="710" width="117" height="60" as="geometry" />
        </mxCell>
        <mxCell id="mPyTUqxMGJh4DycX4-v5-41" value="tipo_punto_interes" style="ellipse;whiteSpace=wrap;html=1;" parent="WIyWlLk6GJQsqaUBKTNV-1" vertex="1">
          <mxGeometry x="270.5" y="990" width="110" height="60" as="geometry" />
        </mxCell>
        <mxCell id="mPyTUqxMGJh4DycX4-v5-42" value="nombre_linea_autobus" style="ellipse;whiteSpace=wrap;html=1;" parent="WIyWlLk6GJQsqaUBKTNV-1" vertex="1">
          <mxGeometry x="1310" y="290" width="133" height="60" as="geometry" />
        </mxCell>
        <mxCell id="mPyTUqxMGJh4DycX4-v5-44" value="id_linea_metro" style="ellipse;whiteSpace=wrap;html=1;" parent="WIyWlLk6GJQsqaUBKTNV-1" vertex="1">
          <mxGeometry x="362.5" y="625" width="90.5" height="60" as="geometry" />
        </mxCell>
        <mxCell id="mPyTUqxMGJh4DycX4-v5-45" value="nombre_estacion" style="ellipse;whiteSpace=wrap;html=1;" parent="WIyWlLk6GJQsqaUBKTNV-1" vertex="1">
          <mxGeometry x="1218.5" y="710" width="100" height="60" as="geometry" />
        </mxCell>
        <mxCell id="mPyTUqxMGJh4DycX4-v5-46" value="id_estacion" style="ellipse;whiteSpace=wrap;html=1;" parent="WIyWlLk6GJQsqaUBKTNV-1" vertex="1">
          <mxGeometry x="1218.5" y="600" width="80" height="60" as="geometry" />
        </mxCell>
        <mxCell id="mPyTUqxMGJh4DycX4-v5-47" value="id_barrio" style="ellipse;whiteSpace=wrap;html=1;" parent="WIyWlLk6GJQsqaUBKTNV-1" vertex="1">
          <mxGeometry x="770" y="390" width="80" height="60" as="geometry" />
        </mxCell>
        <mxCell id="mPyTUqxMGJh4DycX4-v5-48" value="id_barrio" style="ellipse;whiteSpace=wrap;html=1;" parent="WIyWlLk6GJQsqaUBKTNV-1" vertex="1">
          <mxGeometry x="367.75" y="230" width="80" height="60" as="geometry" />
        </mxCell>
        <mxCell id="mPyTUqxMGJh4DycX4-v5-49" value="id_tramo" style="ellipse;whiteSpace=wrap;html=1;" parent="WIyWlLk6GJQsqaUBKTNV-1" vertex="1">
          <mxGeometry x="380.5" y="300" width="80" height="60" as="geometry" />
        </mxCell>
        <mxCell id="mPyTUqxMGJh4DycX4-v5-50" value="nombre_barrio" style="ellipse;whiteSpace=wrap;html=1;" parent="WIyWlLk6GJQsqaUBKTNV-1" vertex="1">
          <mxGeometry x="770" y="290" width="80" height="60" as="geometry" />
        </mxCell>
        <mxCell id="mPyTUqxMGJh4DycX4-v5-52" value="Localizaciones" style="rounded=0;whiteSpace=wrap;html=1;" parent="WIyWlLk6GJQsqaUBKTNV-1" vertex="1">
          <mxGeometry x="1065" y="990" width="120" height="60" as="geometry" />
        </mxCell>
        <mxCell id="mPyTUqxMGJh4DycX4-v5-53" value="id_tramo_inicio&amp;nbsp;" style="ellipse;whiteSpace=wrap;html=1;" parent="WIyWlLk6GJQsqaUBKTNV-1" vertex="1">
          <mxGeometry x="890" y="90" width="80" height="60" as="geometry" />
        </mxCell>
        <mxCell id="mPyTUqxMGJh4DycX4-v5-54" value="&amp;nbsp;id_tramo_fin" style="ellipse;whiteSpace=wrap;html=1;" parent="WIyWlLk6GJQsqaUBKTNV-1" vertex="1">
          <mxGeometry x="980" y="90" width="80" height="60" as="geometry" />
        </mxCell>
        <mxCell id="mPyTUqxMGJh4DycX4-v5-55" value="&amp;nbsp;id_linea_autobus" style="ellipse;whiteSpace=wrap;html=1;" parent="WIyWlLk6GJQsqaUBKTNV-1" vertex="1">
          <mxGeometry x="780" y="90" width="97" height="60" as="geometry" />
        </mxCell>
        <mxCell id="mPyTUqxMGJh4DycX4-v5-56" value="" style="endArrow=none;html=1;rounded=0;" parent="WIyWlLk6GJQsqaUBKTNV-1" edge="1">
          <mxGeometry width="50" height="50" relative="1" as="geometry">
            <mxPoint x="929.5" y="220" as="sourcePoint" />
            <mxPoint x="930" y="150" as="targetPoint" />
          </mxGeometry>
        </mxCell>
        <mxCell id="mPyTUqxMGJh4DycX4-v5-57" value="" style="endArrow=none;html=1;rounded=0;" parent="WIyWlLk6GJQsqaUBKTNV-1" edge="1">
          <mxGeometry width="50" height="50" relative="1" as="geometry">
            <mxPoint x="930" y="220" as="sourcePoint" />
            <mxPoint x="1010" y="150" as="targetPoint" />
          </mxGeometry>
        </mxCell>
        <mxCell id="mPyTUqxMGJh4DycX4-v5-58" value="" style="endArrow=none;html=1;rounded=0;" parent="WIyWlLk6GJQsqaUBKTNV-1" source="mPyTUqxMGJh4DycX4-v5-55" edge="1">
          <mxGeometry width="50" height="50" relative="1" as="geometry">
            <mxPoint x="870" y="190" as="sourcePoint" />
            <mxPoint x="930" y="220" as="targetPoint" />
          </mxGeometry>
        </mxCell>
        <mxCell id="mPyTUqxMGJh4DycX4-v5-60" value="" style="endArrow=none;html=1;rounded=0;entryX=0.5;entryY=1;entryDx=0;entryDy=0;" parent="WIyWlLk6GJQsqaUBKTNV-1" target="mPyTUqxMGJh4DycX4-v5-65" edge="1">
          <mxGeometry width="50" height="50" relative="1" as="geometry">
            <mxPoint x="838" y="640" as="sourcePoint" />
            <mxPoint x="838.5" y="570" as="targetPoint" />
          </mxGeometry>
        </mxCell>
        <mxCell id="mPyTUqxMGJh4DycX4-v5-62" value="" style="endArrow=none;html=1;rounded=0;entryX=0.388;entryY=0.983;entryDx=0;entryDy=0;entryPerimeter=0;" parent="WIyWlLk6GJQsqaUBKTNV-1" target="mPyTUqxMGJh4DycX4-v5-67" edge="1">
          <mxGeometry width="50" height="50" relative="1" as="geometry">
            <mxPoint x="838.5" y="640" as="sourcePoint" />
            <mxPoint x="918.5" y="570" as="targetPoint" />
          </mxGeometry>
        </mxCell>
        <mxCell id="mPyTUqxMGJh4DycX4-v5-64" value="" style="endArrow=none;html=1;rounded=0;exitX=0.742;exitY=0.967;exitDx=0;exitDy=0;exitPerimeter=0;" parent="WIyWlLk6GJQsqaUBKTNV-1" source="mPyTUqxMGJh4DycX4-v5-68" edge="1">
          <mxGeometry width="50" height="50" relative="1" as="geometry">
            <mxPoint x="762.5" y="565" as="sourcePoint" />
            <mxPoint x="838.5" y="640" as="targetPoint" />
          </mxGeometry>
        </mxCell>
        <mxCell id="mPyTUqxMGJh4DycX4-v5-65" value="id_estacion_inicio" style="ellipse;whiteSpace=wrap;html=1;" parent="WIyWlLk6GJQsqaUBKTNV-1" vertex="1">
          <mxGeometry x="788.5" y="500" width="100" height="60" as="geometry" />
        </mxCell>
        <mxCell id="mPyTUqxMGJh4DycX4-v5-67" value="id_estacion_fin" style="ellipse;whiteSpace=wrap;html=1;" parent="WIyWlLk6GJQsqaUBKTNV-1" vertex="1">
          <mxGeometry x="898.5" y="500" width="100" height="60" as="geometry" />
        </mxCell>
        <mxCell id="mPyTUqxMGJh4DycX4-v5-68" value="id_linea_metro" style="ellipse;whiteSpace=wrap;html=1;" parent="WIyWlLk6GJQsqaUBKTNV-1" vertex="1">
          <mxGeometry x="678.5" y="500" width="97" height="60" as="geometry" />
        </mxCell>
        <mxCell id="mPyTUqxMGJh4DycX4-v5-69" value="puntos_interes_localizaciones" style="strokeWidth=2;html=1;shape=mxgraph.flowchart.decision;whiteSpace=wrap;" parent="WIyWlLk6GJQsqaUBKTNV-1" vertex="1">
          <mxGeometry x="743.5" y="970" width="180" height="100" as="geometry" />
        </mxCell>
        <mxCell id="mPyTUqxMGJh4DycX4-v5-70" value="" style="endArrow=none;html=1;rounded=0;entryX=0.388;entryY=0.983;entryDx=0;entryDy=0;entryPerimeter=0;" parent="WIyWlLk6GJQsqaUBKTNV-1" edge="1">
          <mxGeometry width="50" height="50" relative="1" as="geometry">
            <mxPoint x="832.46" y="970" as="sourcePoint" />
            <mxPoint x="913.46" y="889" as="targetPoint" />
          </mxGeometry>
        </mxCell>
        <mxCell id="mPyTUqxMGJh4DycX4-v5-72" value="" style="endArrow=none;html=1;rounded=0;exitX=0.742;exitY=0.967;exitDx=0;exitDy=0;exitPerimeter=0;" parent="WIyWlLk6GJQsqaUBKTNV-1" edge="1">
          <mxGeometry width="50" height="50" relative="1" as="geometry">
            <mxPoint x="753.53" y="888" as="sourcePoint" />
            <mxPoint x="831.5299999999997" y="970" as="targetPoint" />
          </mxGeometry>
        </mxCell>
        <mxCell id="mPyTUqxMGJh4DycX4-v5-73" value="id_punto_interes" style="ellipse;whiteSpace=wrap;html=1;" parent="WIyWlLk6GJQsqaUBKTNV-1" vertex="1">
          <mxGeometry x="683.5" y="830" width="97" height="60" as="geometry" />
        </mxCell>
        <mxCell id="mPyTUqxMGJh4DycX4-v5-74" value="id_localizacion" style="ellipse;whiteSpace=wrap;html=1;" parent="WIyWlLk6GJQsqaUBKTNV-1" vertex="1">
          <mxGeometry x="893.5" y="830" width="80" height="60" as="geometry" />
        </mxCell>
        <mxCell id="mPyTUqxMGJh4DycX4-v5-76" value="latitud_localizacion" style="ellipse;whiteSpace=wrap;html=1;" parent="WIyWlLk6GJQsqaUBKTNV-1" vertex="1">
          <mxGeometry x="1293.5" y="1070" width="110" height="60" as="geometry" />
        </mxCell>
        <mxCell id="mPyTUqxMGJh4DycX4-v5-77" value="&amp;nbsp;id_localizacion&amp;nbsp;" style="ellipse;whiteSpace=wrap;html=1;" parent="WIyWlLk6GJQsqaUBKTNV-1" vertex="1">
          <mxGeometry x="1283.5" y="900" width="90" height="60" as="geometry" />
        </mxCell>
        <mxCell id="mPyTUqxMGJh4DycX4-v5-78" value="longitud_localizacion" style="ellipse;whiteSpace=wrap;html=1;" parent="WIyWlLk6GJQsqaUBKTNV-1" vertex="1">
          <mxGeometry x="1293.5" y="990" width="120" height="60" as="geometry" />
        </mxCell>
        <mxCell id="mPyTUqxMGJh4DycX4-v5-79" value="" style="endArrow=none;html=1;rounded=0;entryX=0;entryY=0.5;entryDx=0;entryDy=0;" parent="WIyWlLk6GJQsqaUBKTNV-1" edge="1">
          <mxGeometry width="50" height="50" relative="1" as="geometry">
            <mxPoint x="918.5" y="689.5" as="sourcePoint" />
            <mxPoint x="1048.5" y="689.5" as="targetPoint" />
          </mxGeometry>
        </mxCell>
        <mxCell id="mPyTUqxMGJh4DycX4-v5-80" value="" style="endArrow=none;html=1;rounded=0;entryX=0;entryY=0.5;entryDx=0;entryDy=0;" parent="WIyWlLk6GJQsqaUBKTNV-1" edge="1">
          <mxGeometry width="50" height="50" relative="1" as="geometry">
            <mxPoint x="720" y="269.5" as="sourcePoint" />
            <mxPoint x="850" y="269.5" as="targetPoint" />
          </mxGeometry>
        </mxCell>
        <mxCell id="mPyTUqxMGJh4DycX4-v5-81" value="" style="endArrow=none;html=1;rounded=0;entryX=0;entryY=0.5;entryDx=0;entryDy=0;" parent="WIyWlLk6GJQsqaUBKTNV-1" edge="1">
          <mxGeometry width="50" height="50" relative="1" as="geometry">
            <mxPoint x="625.5" y="689.5" as="sourcePoint" />
            <mxPoint x="755.5" y="689.5" as="targetPoint" />
          </mxGeometry>
        </mxCell>
        <mxCell id="mPyTUqxMGJh4DycX4-v5-82" value="" style="endArrow=none;html=1;rounded=0;entryX=0;entryY=0.5;entryDx=0;entryDy=0;" parent="WIyWlLk6GJQsqaUBKTNV-1" edge="1">
          <mxGeometry width="50" height="50" relative="1" as="geometry">
            <mxPoint x="1010" y="269.5" as="sourcePoint" />
            <mxPoint x="1140" y="269.5" as="targetPoint" />
          </mxGeometry>
        </mxCell>
        <mxCell id="mPyTUqxMGJh4DycX4-v5-83" value="" style="endArrow=none;html=1;rounded=0;entryX=0;entryY=0.5;entryDx=0;entryDy=0;" parent="WIyWlLk6GJQsqaUBKTNV-1" edge="1">
          <mxGeometry width="50" height="50" relative="1" as="geometry">
            <mxPoint x="610.5" y="1019.5" as="sourcePoint" />
            <mxPoint x="740.5" y="1019.5" as="targetPoint" />
          </mxGeometry>
        </mxCell>
        <mxCell id="mPyTUqxMGJh4DycX4-v5-84" value="" style="endArrow=none;html=1;rounded=0;entryX=0;entryY=0.5;entryDx=0;entryDy=0;" parent="WIyWlLk6GJQsqaUBKTNV-1" edge="1">
          <mxGeometry width="50" height="50" relative="1" as="geometry">
            <mxPoint x="933.5" y="1019.5" as="sourcePoint" />
            <mxPoint x="1063.5" y="1019.5" as="targetPoint" />
          </mxGeometry>
        </mxCell>
        <mxCell id="mPyTUqxMGJh4DycX4-v5-85" value="" style="endArrow=none;html=1;rounded=0;entryX=0;entryY=0.5;entryDx=0;entryDy=0;" parent="WIyWlLk6GJQsqaUBKTNV-1" edge="1">
          <mxGeometry width="50" height="50" relative="1" as="geometry">
            <mxPoint x="933.5" y="1019.5" as="sourcePoint" />
            <mxPoint x="1063.5" y="1019.5" as="targetPoint" />
          </mxGeometry>
        </mxCell>
        <mxCell id="mPyTUqxMGJh4DycX4-v5-86" value="" style="endArrow=none;html=1;rounded=0;entryX=0;entryY=0.5;entryDx=0;entryDy=0;" parent="WIyWlLk6GJQsqaUBKTNV-1" edge="1">
          <mxGeometry width="50" height="50" relative="1" as="geometry">
            <mxPoint x="923.5" y="1019.5" as="sourcePoint" />
            <mxPoint x="1053.5" y="1019.5" as="targetPoint" />
          </mxGeometry>
        </mxCell>
        <mxCell id="mPyTUqxMGJh4DycX4-v5-87" value="" style="endArrow=none;html=1;rounded=0;exitX=0.5;exitY=0;exitDx=0;exitDy=0;exitPerimeter=0;entryX=0.5;entryY=1;entryDx=0;entryDy=0;" parent="WIyWlLk6GJQsqaUBKTNV-1" source="mPyTUqxMGJh4DycX4-v5-0" edge="1">
          <mxGeometry width="50" height="50" relative="1" as="geometry">
            <mxPoint x="659.5" y="330" as="sourcePoint" />
            <mxPoint x="660" y="297.5" as="targetPoint" />
            <Array as="points" />
          </mxGeometry>
        </mxCell>
        <mxCell id="B0xLCWAMawa5iLT7gMd6-0" value="" style="endArrow=none;html=1;rounded=0;entryX=0.027;entryY=0.657;entryDx=0;entryDy=0;entryPerimeter=0;" parent="WIyWlLk6GJQsqaUBKTNV-1" target="mPyTUqxMGJh4DycX4-v5-35" edge="1">
          <mxGeometry width="50" height="50" relative="1" as="geometry">
            <mxPoint x="1260" y="270" as="sourcePoint" />
            <mxPoint x="1310" y="220" as="targetPoint" />
          </mxGeometry>
        </mxCell>
        <mxCell id="B0xLCWAMawa5iLT7gMd6-1" value="" style="endArrow=none;html=1;rounded=0;exitX=1;exitY=0.5;exitDx=0;exitDy=0;" parent="WIyWlLk6GJQsqaUBKTNV-1" source="mPyTUqxMGJh4DycX4-v5-6" edge="1">
          <mxGeometry width="50" height="50" relative="1" as="geometry">
            <mxPoint x="1268.65" y="290.58" as="sourcePoint" />
            <mxPoint x="1310" y="310" as="targetPoint" />
          </mxGeometry>
        </mxCell>
        <mxCell id="B0xLCWAMawa5iLT7gMd6-3" value="" style="endArrow=none;html=1;rounded=0;" parent="WIyWlLk6GJQsqaUBKTNV-1" edge="1" source="mPyTUqxMGJh4DycX4-v5-48">
          <mxGeometry width="50" height="50" relative="1" as="geometry">
            <mxPoint x="442.5" y="245" as="sourcePoint" />
            <mxPoint x="592.5" y="270" as="targetPoint" />
            <Array as="points" />
          </mxGeometry>
        </mxCell>
        <mxCell id="B0xLCWAMawa5iLT7gMd6-4" value="id_calle_fin" style="ellipse;whiteSpace=wrap;html=1;" parent="WIyWlLk6GJQsqaUBKTNV-1" vertex="1">
          <mxGeometry x="480" y="-20" width="80" height="60" as="geometry" />
        </mxCell>
        <mxCell id="B0xLCWAMawa5iLT7gMd6-5" value="" style="endArrow=none;html=1;rounded=0;exitX=1;exitY=0.375;exitDx=0;exitDy=0;exitPerimeter=0;" parent="WIyWlLk6GJQsqaUBKTNV-1" edge="1" source="mPyTUqxMGJh4DycX4-v5-49">
          <mxGeometry width="50" height="50" relative="1" as="geometry">
            <mxPoint x="450" y="300" as="sourcePoint" />
            <mxPoint x="600" y="267.5" as="targetPoint" />
            <Array as="points" />
          </mxGeometry>
        </mxCell>
        <mxCell id="B0xLCWAMawa5iLT7gMd6-9" value="" style="endArrow=none;html=1;rounded=0;entryX=0.027;entryY=0.657;entryDx=0;entryDy=0;entryPerimeter=0;" parent="WIyWlLk6GJQsqaUBKTNV-1" edge="1">
          <mxGeometry width="50" height="50" relative="1" as="geometry">
            <mxPoint x="720" y="370.58" as="sourcePoint" />
            <mxPoint x="773" y="329.58" as="targetPoint" />
          </mxGeometry>
        </mxCell>
        <mxCell id="B0xLCWAMawa5iLT7gMd6-10" value="" style="endArrow=none;html=1;rounded=0;exitX=1;exitY=0.5;exitDx=0;exitDy=0;" parent="WIyWlLk6GJQsqaUBKTNV-1" edge="1">
          <mxGeometry width="50" height="50" relative="1" as="geometry">
            <mxPoint x="720" y="370" as="sourcePoint" />
            <mxPoint x="770" y="410" as="targetPoint" />
          </mxGeometry>
        </mxCell>
        <mxCell id="B0xLCWAMawa5iLT7gMd6-13" value="" style="endArrow=none;html=1;rounded=0;entryX=0.027;entryY=0.657;entryDx=0;entryDy=0;entryPerimeter=0;" parent="WIyWlLk6GJQsqaUBKTNV-1" edge="1">
          <mxGeometry width="50" height="50" relative="1" as="geometry">
            <mxPoint x="1168.5" y="686" as="sourcePoint" />
            <mxPoint x="1221.5" y="645" as="targetPoint" />
          </mxGeometry>
        </mxCell>
        <mxCell id="B0xLCWAMawa5iLT7gMd6-14" value="" style="endArrow=none;html=1;rounded=0;exitX=1;exitY=0.5;exitDx=0;exitDy=0;entryX=0.05;entryY=0.283;entryDx=0;entryDy=0;entryPerimeter=0;" parent="WIyWlLk6GJQsqaUBKTNV-1" target="mPyTUqxMGJh4DycX4-v5-45" edge="1">
          <mxGeometry width="50" height="50" relative="1" as="geometry">
            <mxPoint x="1168.5" y="685" as="sourcePoint" />
            <mxPoint x="1218.5" y="725" as="targetPoint" />
          </mxGeometry>
        </mxCell>
        <mxCell id="B0xLCWAMawa5iLT7gMd6-15" value="" style="endArrow=none;html=1;rounded=0;" parent="WIyWlLk6GJQsqaUBKTNV-1" edge="1">
          <mxGeometry width="50" height="50" relative="1" as="geometry">
            <mxPoint x="448.5" y="665" as="sourcePoint" />
            <mxPoint x="505.5" y="690" as="targetPoint" />
          </mxGeometry>
        </mxCell>
        <mxCell id="B0xLCWAMawa5iLT7gMd6-16" value="" style="endArrow=none;html=1;rounded=0;" parent="WIyWlLk6GJQsqaUBKTNV-1" source="mPyTUqxMGJh4DycX4-v5-40" edge="1">
          <mxGeometry width="50" height="50" relative="1" as="geometry">
            <mxPoint x="441.5" y="685" as="sourcePoint" />
            <mxPoint x="508.5" y="695" as="targetPoint" />
          </mxGeometry>
        </mxCell>
        <mxCell id="B0xLCWAMawa5iLT7gMd6-17" value="" style="endArrow=none;html=1;rounded=0;" parent="WIyWlLk6GJQsqaUBKTNV-1" edge="1">
          <mxGeometry width="50" height="50" relative="1" as="geometry">
            <mxPoint x="1293.5" y="1020" as="sourcePoint" />
            <mxPoint x="1185" y="1020" as="targetPoint" />
          </mxGeometry>
        </mxCell>
        <mxCell id="B0xLCWAMawa5iLT7gMd6-18" value="" style="endArrow=none;html=1;rounded=0;" parent="WIyWlLk6GJQsqaUBKTNV-1" edge="1">
          <mxGeometry width="50" height="50" relative="1" as="geometry">
            <mxPoint x="1185" y="1021" as="sourcePoint" />
            <mxPoint x="1293.5" y="950" as="targetPoint" />
          </mxGeometry>
        </mxCell>
        <mxCell id="B0xLCWAMawa5iLT7gMd6-19" value="" style="endArrow=none;html=1;rounded=0;exitX=0.742;exitY=0.967;exitDx=0;exitDy=0;exitPerimeter=0;" parent="WIyWlLk6GJQsqaUBKTNV-1" edge="1">
          <mxGeometry width="50" height="50" relative="1" as="geometry">
            <mxPoint x="1185" y="1020" as="sourcePoint" />
            <mxPoint x="1293.5" y="1090" as="targetPoint" />
          </mxGeometry>
        </mxCell>
        <mxCell id="B0xLCWAMawa5iLT7gMd6-20" value="" style="endArrow=none;html=1;rounded=0;exitX=0.742;exitY=0.967;exitDx=0;exitDy=0;exitPerimeter=0;" parent="WIyWlLk6GJQsqaUBKTNV-1" edge="1">
          <mxGeometry width="50" height="50" relative="1" as="geometry">
            <mxPoint x="382" y="950" as="sourcePoint" />
            <mxPoint x="490.5" y="1020" as="targetPoint" />
          </mxGeometry>
        </mxCell>
        <mxCell id="B0xLCWAMawa5iLT7gMd6-21" value="" style="endArrow=none;html=1;rounded=0;" parent="WIyWlLk6GJQsqaUBKTNV-1" edge="1">
          <mxGeometry width="50" height="50" relative="1" as="geometry">
            <mxPoint x="490.5" y="1019.5" as="sourcePoint" />
            <mxPoint x="382" y="1019.5" as="targetPoint" />
          </mxGeometry>
        </mxCell>
        <mxCell id="B0xLCWAMawa5iLT7gMd6-22" value="" style="endArrow=none;html=1;rounded=0;" parent="WIyWlLk6GJQsqaUBKTNV-1" edge="1">
          <mxGeometry width="50" height="50" relative="1" as="geometry">
            <mxPoint x="382" y="1091" as="sourcePoint" />
            <mxPoint x="490.5" y="1020" as="targetPoint" />
          </mxGeometry>
        </mxCell>
        <mxCell id="B0xLCWAMawa5iLT7gMd6-23" value="" style="endArrow=none;html=1;rounded=0;exitX=0.5;exitY=0;exitDx=0;exitDy=0;exitPerimeter=0;entryX=0.5;entryY=1;entryDx=0;entryDy=0;" parent="WIyWlLk6GJQsqaUBKTNV-1" edge="1">
          <mxGeometry width="50" height="50" relative="1" as="geometry">
            <mxPoint x="659.5" y="232.5" as="sourcePoint" />
            <mxPoint x="659.5" y="190" as="targetPoint" />
            <Array as="points" />
          </mxGeometry>
        </mxCell>
        <mxCell id="B0xLCWAMawa5iLT7gMd6-24" value="" style="endArrow=none;html=1;rounded=0;entryX=0.3;entryY=0.949;entryDx=0;entryDy=0;entryPerimeter=0;" parent="WIyWlLk6GJQsqaUBKTNV-1" edge="1" target="mPyTUqxMGJh4DycX4-v5-29">
          <mxGeometry width="50" height="50" relative="1" as="geometry">
            <mxPoint x="660" y="129.99999999999997" as="sourcePoint" />
            <mxPoint x="710" y="60" as="targetPoint" />
          </mxGeometry>
        </mxCell>
        <mxCell id="B0xLCWAMawa5iLT7gMd6-25" value="" style="endArrow=none;html=1;rounded=0;entryX=0.5;entryY=0;entryDx=0;entryDy=0;" parent="WIyWlLk6GJQsqaUBKTNV-1" edge="1" target="mPyTUqxMGJh4DycX4-v5-2" source="mPyTUqxMGJh4DycX4-v5-28">
          <mxGeometry width="50" height="50" relative="1" as="geometry">
            <mxPoint x="610" y="60" as="sourcePoint" />
            <mxPoint x="657" y="130" as="targetPoint" />
          </mxGeometry>
        </mxCell>
        <mxCell id="X_ZMlKX8hckyZ3OgOBXB-0" value="" style="rhombus;whiteSpace=wrap;html=1;fontSize=16;" vertex="1" parent="WIyWlLk6GJQsqaUBKTNV-1">
          <mxGeometry x="590" y="230" width="135" height="80" as="geometry" />
        </mxCell>
        <mxCell id="X_ZMlKX8hckyZ3OgOBXB-10" value="id_calle" style="ellipse;whiteSpace=wrap;html=1;" vertex="1" parent="WIyWlLk6GJQsqaUBKTNV-1">
          <mxGeometry x="375.5" y="160" width="80" height="60" as="geometry" />
        </mxCell>
        <mxCell id="X_ZMlKX8hckyZ3OgOBXB-11" value="" style="endArrow=none;html=1;rounded=0;" edge="1" parent="WIyWlLk6GJQsqaUBKTNV-1" source="X_ZMlKX8hckyZ3OgOBXB-10">
          <mxGeometry width="50" height="50" relative="1" as="geometry">
            <mxPoint x="450" y="190" as="sourcePoint" />
            <mxPoint x="590" y="270" as="targetPoint" />
            <Array as="points" />
          </mxGeometry>
        </mxCell>
        <mxCell id="X_ZMlKX8hckyZ3OgOBXB-12" value="" style="endArrow=none;html=1;rounded=0;exitX=0.5;exitY=1;exitDx=0;exitDy=0;" edge="1" parent="WIyWlLk6GJQsqaUBKTNV-1" source="mPyTUqxMGJh4DycX4-v5-32">
          <mxGeometry width="50" height="50" relative="1" as="geometry">
            <mxPoint x="600" y="80" as="sourcePoint" />
            <mxPoint x="659.13" y="130" as="targetPoint" />
          </mxGeometry>
        </mxCell>
        <mxCell id="X_ZMlKX8hckyZ3OgOBXB-13" value="" style="endArrow=none;html=1;rounded=0;entryX=0.5;entryY=0;entryDx=0;entryDy=0;exitX=0.763;exitY=0.917;exitDx=0;exitDy=0;exitPerimeter=0;" edge="1" parent="WIyWlLk6GJQsqaUBKTNV-1" source="B0xLCWAMawa5iLT7gMd6-4" target="mPyTUqxMGJh4DycX4-v5-2">
          <mxGeometry width="50" height="50" relative="1" as="geometry">
            <mxPoint x="520" y="80" as="sourcePoint" />
            <mxPoint x="580.06" y="130" as="targetPoint" />
          </mxGeometry>
        </mxCell>
        <mxCell id="X_ZMlKX8hckyZ3OgOBXB-14" value="Tramos" style="text;strokeColor=none;fillColor=none;html=1;align=center;verticalAlign=middle;whiteSpace=wrap;rounded=0;fontSize=16;" vertex="1" parent="WIyWlLk6GJQsqaUBKTNV-1">
          <mxGeometry x="627.5" y="250" width="60" height="30" as="geometry" />
        </mxCell>
      </root>
    </mxGraphModel>
  </diagram>
</mxfile>
